<?xml version="1.0" encoding="UTF-8" standalone="no"?>
<svg
   xmlns:dc="http://purl.org/dc/elements/1.1/"
   xmlns:cc="http://creativecommons.org/ns#"
   xmlns:rdf="http://www.w3.org/1999/02/22-rdf-syntax-ns#"
   xmlns:svg="http://www.w3.org/2000/svg"
   xmlns="http://www.w3.org/2000/svg"
   xmlns:sodipodi="http://sodipodi.sourceforge.net/DTD/sodipodi-0.dtd"
   xmlns:inkscape="http://www.inkscape.org/namespaces/inkscape"
   id="Layer_1"
   data-name="Layer 1"
   viewBox="0 0 40 40"
   version="1.1"
   sodipodi:docname="Kofi_Logo_Blue.svg"
   width="40"
   height="40"
   inkscape:version="0.92.4 (5da689c313, 2019-01-14)">
  <metadata
     id="metadata34">
    <rdf:RDF>
      <cc:Work
         rdf:about="">
        <dc:format>image/svg+xml</dc:format>
        <dc:type
           rdf:resource="http://purl.org/dc/dcmitype/StillImage" />
        <dc:title>Kofi_Logo_Blue</dc:title>
      </cc:Work>
    </rdf:RDF>
  </metadata>
  <sodipodi:namedview
     pagecolor="#ffffff"
     bordercolor="#666666"
     borderopacity="1"
     objecttolerance="10"
     gridtolerance="10"
     guidetolerance="10"
     inkscape:pageopacity="0"
     inkscape:pageshadow="2"
     inkscape:window-width="1920"
     inkscape:window-height="1027"
     id="namedview32"
     showgrid="false"
     inkscape:zoom="11.207921"
     inkscape:cx="26.452999"
     inkscape:cy="17.325963"
     inkscape:window-x="-8"
     inkscape:window-y="22"
     inkscape:window-maximized="1"
     inkscape:current-layer="Layer_1" />
  <defs
     id="defs9">
    <style
       id="style2">.cls-1{fill:#00b9fe;}.cls-2{fill:#fff;stroke:#000;stroke-linecap:round;stroke-linejoin:round;stroke-width:1.14px;}.cls-3{fill:#ff5e5b;}.cls-4{fill:url(#linear-gradient);}.cls-5{fill:#26272a;}</style>
    <linearGradient
       id="linear-gradient"
       x1="9.5500002"
       y1="-1715.77"
       x2="13.7"
       y2="-1728.51"
       gradientTransform="matrix(1,0,0,-1,4.26,-1707.68)"
       gradientUnits="userSpaceOnUse">
      <stop
         offset="0"
         stop-color="#ff4ea3"
         id="stop4" />
      <stop
         offset="1"
         stop-color="#ff5e5b"
         id="stop6" />
    </linearGradient>
  </defs>
  <title
     id="title11">Kofi_Logo_Blue</title>
  <circle
     class="cls-1"
     cx="20"
     cy="20"
     r="19.700001"
     id="circle13"
     style="fill:#00b9fe" />
  <g
     id="Layer_1-2"
     data-name="Layer 1-2"
     transform="translate(-0.39999962)">
    <g
       id="Layer_1-3"
       data-name="Layer 1-3">
      <path
         class="cls-2"
         d="M 30.4,21.9 A 15.48,15.48 0 0 1 28.2,22 v -7.2 h 1.5 a 3,3 0 0 1 2.5,1.2 3.57,3.57 0 0 1 0.8,2.3 3.35,3.35 0 0 1 -2.6,3.6 z m 6.2,-5 A 6.55,6.55 0 0 0 33.7,12.4 7.67,7.67 0 0 0 29.3,11 h -22 a 1.28,1.28 0 0 0 -1.1,1.2 v 0.3 c 0,0 -0.1,9.7 0.1,15 a 3.29,3.29 0 0 0 3.3,3.1 c 0,0 10.1,0 14.9,-0.1 h 0.7 c 2.8,-0.7 3,-3.3 3,-4.7 5.5,0.2 9.4,-3.7 8.4,-8.9 z"
         id="path15"
         inkscape:connector-curvature="0"
         style="fill:#ffffff;stroke:#000000;stroke-width:1.13999999px;stroke-linecap:round;stroke-linejoin:round" />
      <path
         class="cls-3"
         d="m 17,26.4 c 0.3,0.1 0.4,0 0.4,0 0,0 3.5,-3.2 5.1,-5.1 1.4,-1.7 1.5,-4.4 -0.9,-5.5 -2.4,-1.1 -4.4,1.2 -4.4,1.2 a 3.94,3.94 0 0 0 -5.5,-0.6 l -0.1,0.1 c -1.2,1.3 -0.8,3.5 0.1,4.7 a 60.17,60.17 0 0 0 5.1,5 z"
         id="path17"
         inkscape:connector-curvature="0"
         style="fill:#ff5e5b" />
      <path
         class="cls-4"
         d="m 17.2,26.5 a 0.37,0.37 0 0 0 0.3,-0.1 c 0,0 3.5,-3.2 5.1,-5.1 1.4,-1.7 1.5,-4.4 -0.9,-5.5 -2.4,-1.1 -4.4,1.2 -4.4,1.2 a 3.94,3.94 0 0 0 -5.5,-0.6 l -0.1,0.1 c -1.2,1.3 -0.8,3.5 0.1,4.7 a 62.58,62.58 0 0 0 5.2,5.1 c 0,0.2 0.1,0.2 0.2,0.2 z"
         id="path19"
         inkscape:connector-curvature="0"
         style="fill:url(#linear-gradient)" />
    </g>
  </g>
</svg>
