<?xml version="1.0" encoding="UTF-8" standalone="no"?>
<!-- Created with Inkscape (http://www.inkscape.org/) -->

<svg
   xmlns:dc="http://purl.org/dc/elements/1.1/"
   xmlns:cc="http://creativecommons.org/ns#"
   xmlns:rdf="http://www.w3.org/1999/02/22-rdf-syntax-ns#"
   xmlns:svg="http://www.w3.org/2000/svg"
   xmlns="http://www.w3.org/2000/svg"
   xmlns:sodipodi="http://sodipodi.sourceforge.net/DTD/sodipodi-0.dtd"
   xmlns:inkscape="http://www.inkscape.org/namespaces/inkscape"
   width="32"
   height="32"
   viewBox="0 0 32 32.000001"
   version="1.1"
   id="svg8"
   inkscape:version="0.92.4 (5da689c313, 2019-01-14)"
   sodipodi:docname="net.svg">
  <defs
     id="defs2" />
  <sodipodi:namedview
     id="base"
     pagecolor="#808080"
     bordercolor="#666666"
     borderopacity="1.0"
     inkscape:pageopacity="0"
     inkscape:pageshadow="2"
     inkscape:zoom="11.313709"
     inkscape:cx="4.8365202"
     inkscape:cy="22.460138"
     inkscape:document-units="px"
     inkscape:current-layer="layer1"
     showgrid="false"
     units="px"
     inkscape:window-width="1920"
     inkscape:window-height="1027"
     inkscape:window-x="-8"
     inkscape:window-y="22"
     inkscape:window-maximized="1" />
  <metadata
     id="metadata5">
    <rdf:RDF>
      <cc:Work
         rdf:about="">
        <dc:format>image/svg+xml</dc:format>
        <dc:type
           rdf:resource="http://purl.org/dc/dcmitype/StillImage" />
        <dc:title />
      </cc:Work>
    </rdf:RDF>
  </metadata>
  <g
     inkscape:label="Layer 1"
     inkscape:groupmode="layer"
     id="layer1"
     transform="translate(0,-1090.5197)">
    <circle
       style="opacity:1;fill:#c0c0c0;fill-opacity:1;stroke:none;stroke-width:2.14092302;stroke-linecap:round;stroke-linejoin:round;stroke-miterlimit:4;stroke-dasharray:none;stroke-dashoffset:0;stroke-opacity:1;paint-order:normal"
       id="path2527"
       cx="16"
       cy="1106.5197"
       r="12.207978" />
    <path
       style="fill:none;stroke:#808080;stroke-width:1.36300004;stroke-linecap:butt;stroke-linejoin:miter;stroke-miterlimit:4;stroke-dasharray:none;stroke-opacity:1"
       d="m 15.762066,1092.8596 c -8.463388,9.3235 -8.668934,21.4452 0,27.1596"
       id="path2529"
       inkscape:connector-curvature="0"
       sodipodi:nodetypes="cc" />
    <path
       sodipodi:nodetypes="cc"
       inkscape:connector-curvature="0"
       id="path2531"
       d="m 16.283831,1092.852 c 8.176488,9.3993 8.814172,21.3961 -0.08839,27.1747"
       style="fill:none;stroke:#808080;stroke-width:1.36300004;stroke-linecap:butt;stroke-linejoin:miter;stroke-miterlimit:4;stroke-dasharray:none;stroke-opacity:1" />
    <path
       style="fill:none;stroke:#808080;stroke-width:1.26300001;stroke-linecap:butt;stroke-linejoin:miter;stroke-miterlimit:4;stroke-dasharray:none;stroke-opacity:1"
       d="m 15.986915,1092.993 v 27.0708"
       id="path2537"
       inkscape:connector-curvature="0" />
    <path
       sodipodi:nodetypes="cssc"
       inkscape:connector-curvature="0"
       id="path2545"
       d="m 27.248092,1100.1389 c 0,0 0.0063,1.8735 -1.831448,3.043 -4.754553,3.0257 -15.279538,3.0345 -19.362344,-0.3546 -1.29452,-1.0745 -1.360406,-2.7922 -1.360406,-2.7922"
       style="fill:none;stroke:#808080;stroke-width:1.25199997;stroke-linecap:butt;stroke-linejoin:miter;stroke-miterlimit:4;stroke-dasharray:none;stroke-opacity:1" />
    <path
       style="fill:none;stroke:#808080;stroke-width:1.54999995;stroke-linecap:butt;stroke-linejoin:miter;stroke-miterlimit:4;stroke-dasharray:none;stroke-opacity:1"
       d="m 29.101038,1106.1032 c 0,0 -0.294454,1.8053 -2.128756,3.5492 -5.308013,5.0467 -17.585159,4.7538 -22.505512,-0.4136 -1.349259,-1.417 -1.581246,-3.2565 -1.581246,-3.2565"
       id="path2560"
       inkscape:connector-curvature="0"
       sodipodi:nodetypes="cssc" />
    <text
       xml:space="preserve"
       style="font-style:normal;font-variant:normal;font-weight:normal;font-stretch:normal;font-size:64px;line-height:1.25;font-family:'Open Sans';-inkscape-font-specification:'Open Sans';text-align:center;letter-spacing:0px;word-spacing:0px;text-anchor:middle;fill:#000000;fill-opacity:1;stroke:none"
       x="-1.8561548"
       y="1078.9443"
       id="text826"><tspan
         sodipodi:role="line"
         id="tspan824"
         x="-1.8561548"
         y="1078.9443"
         style="font-size:16px">⊞▭∴∇∷⋈⊹°</tspan></text>
    <g
       aria-label="⊞▭∴∇°"
       style="font-style:normal;font-variant:normal;font-weight:normal;font-stretch:normal;font-size:64px;line-height:1.25;font-family:'Open Sans';-inkscape-font-specification:'Open Sans';text-align:center;letter-spacing:0px;word-spacing:0px;text-anchor:middle;fill:#000000;fill-opacity:1;stroke:none"
       id="text830">
      <path
         d="m -29.762405,1058.9443 v -9.25 h 9.25 v 9.25 z m 8.484375,-4.2422 h -3.46875 v 3.4688 h 3.46875 z m -4.242187,3.4688 v -3.4688 h -3.46875 v 3.4688 z m -3.46875,-4.2422 h 3.46875 v -3.4687 h -3.46875 z m 4.242187,0 h 3.46875 v -3.4687 h -3.46875 z"
         style="font-size:16px"
         id="path832" />
      <path
         d="m -17.043655,1056.6318 v -4.625 h 9.2500002 v 4.625 z m 0.773438,-0.7734 h 7.7109372 v -3.0859 h -7.7109372 z"
         style="font-size:16px"
         id="path834" />
      <path
         d="m -4.3249048,1058.9443 v -1.539 h 1.5390625 v 1.539 z m 7.7109375,0 v -1.539 h 1.5390625 v 1.539 z m -3.859375,-7.7109 v -1.5391 h 1.546875 v 1.5391 z"
         style="font-size:16px"
         id="path836" />
      <path
         d="m 21.932908,1049.7959 q 0,-1.0156 0.703125,-1.7266 0.710937,-0.7109 1.726562,-0.7109 1.015625,0 1.726563,0.7109 0.710937,0.7032 0.710937,1.7266 0,0.6562 -0.320312,1.2187 -0.320313,0.5547 -0.890625,0.8829 -0.570313,0.3281 -1.226563,0.3281 -1.015625,0 -1.726562,-0.7031 -0.703125,-0.7032 -0.703125,-1.7266 z m 0.898437,0 q 0,0.6406 0.453125,1.0859 0.460938,0.4453 1.09375,0.4453 0.625,0 1.070313,-0.4375 0.453125,-0.4453 0.453125,-1.0937 0,-0.6563 -0.445313,-1.0938 -0.4375,-0.4453 -1.078125,-0.4453 -0.648437,0 -1.101562,0.4453 -0.445313,0.4454 -0.445313,1.0938 z"
         style="font-size:16px"
         id="path840" />
    </g>
  </g>
</svg>
